<svg xmlns="http://www.w3.org/2000/svg" viewBox="0 0 120 120">
  <circle cx="60" cy="62" r="52" fill="#FFE3DE"/>
  <path d="M20 118 C20 82 36 66 60 66 C84 66 100 82 100 118 Z" fill="#F3A8A0"/>
  <path d="M46 70 Q60 78 74 70 L74 82 Q60 90 46 82 Z" fill="#FFFFFF"/>
  <circle cx="60" cy="46" r="27" fill="#FFD3CB"/>
  <circle cx="50" cy="44" r="3.2" fill="#5B3A38"/>
  <circle cx="70" cy="44" r="3.2" fill="#5B3A38"/>
  <path d="M46 41 Q50 37 54 41" stroke="#5B3A38" stroke-width="2" fill="none" stroke-linecap="round"/>
  <path d="M66 41 Q70 37 74 41" stroke="#5B3A38" stroke-width="2" fill="none" stroke-linecap="round"/>
  <circle cx="47" cy="52" r="2" fill="#8FC9E8"/>
  <path d="M50 56 Q60 64 70 56" stroke="#5B3A38" stroke-width="2.4" fill="none" stroke-linecap="round"/>
  <g transform="translate(83,86)">
    <path d="M0 6 C0 -2 8 -6 12 0 C16 -6 24 -2 24 6 C24 14 12 22 12 22 C12 22 0 14 0 6 Z" fill="#E8635A"/>
  </g>
</svg>
